<svg width="30" height="30" viewBox="0 0 30 30" fill="none" xmlns="http://www.w3.org/2000/svg">
<circle cx="15" cy="15" r="15" fill="#D8A936"/>
<path d="M14.5726 12.3524C12.87 12.3524 11.4967 13.7257 11.4967 15.4284C11.4967 17.131 12.87 18.5043 14.5726 18.5043C16.2752 18.5043 17.6486 17.131 17.6486 15.4284C17.6486 13.7257 16.2752 12.3524 14.5726 12.3524ZM14.5726 17.4281C13.4723 17.4281 12.5729 16.5313 12.5729 15.4284C12.5729 14.3254 13.4697 13.4286 14.5726 13.4286C15.6756 13.4286 16.5724 14.3254 16.5724 15.4284C16.5724 16.5313 15.6729 17.4281 14.5726 17.4281V17.4281ZM18.4919 12.2266C18.4919 12.6255 18.1706 12.944 17.7744 12.944C17.3755 12.944 17.057 12.6228 17.057 12.2266C17.057 11.8304 17.3782 11.5091 17.7744 11.5091C18.1706 11.5091 18.4919 11.8304 18.4919 12.2266ZM20.5291 12.9547C20.4836 11.9937 20.2641 11.1424 19.56 10.441C18.8586 9.73956 18.0073 9.52004 17.0462 9.47185C16.0557 9.41563 13.0868 9.41563 12.0963 9.47185C11.1379 9.51736 10.2866 9.73688 9.58256 10.4383C8.87848 11.1397 8.66164 11.991 8.61345 12.9521C8.55723 13.9426 8.55723 16.9115 8.61345 17.902C8.65896 18.8631 8.87848 19.7144 9.58256 20.4158C10.2866 21.1172 11.1353 21.3367 12.0963 21.3849C13.0868 21.4411 16.0557 21.4411 17.0462 21.3849C18.0073 21.3394 18.8586 21.1198 19.56 20.4158C20.2614 19.7144 20.4809 18.8631 20.5291 17.902C20.5853 16.9115 20.5853 13.9453 20.5291 12.9547V12.9547ZM19.2495 18.9648C19.0407 19.4895 18.6364 19.8937 18.109 20.1052C17.3193 20.4184 15.4454 20.3462 14.5726 20.3462C13.6999 20.3462 11.8233 20.4158 11.0362 20.1052C10.5115 19.8964 10.1073 19.4922 9.89577 18.9648C9.58256 18.175 9.65484 16.3011 9.65484 15.4284C9.65484 14.5556 9.58523 12.679 9.89577 11.8919C10.1046 11.3672 10.5088 10.963 11.0362 10.7515C11.8259 10.4383 13.6999 10.5106 14.5726 10.5106C15.4454 10.5106 17.322 10.441 18.109 10.7515C18.6338 10.9603 19.038 11.3645 19.2495 11.8919C19.5627 12.6817 19.4904 14.5556 19.4904 15.4284C19.4904 16.3011 19.5627 18.1777 19.2495 18.9648Z" fill="#020E27"/>
</svg>
