<svg width="30" height="30" viewBox="0 0 30 30" fill="none" xmlns="http://www.w3.org/2000/svg">
<circle cx="15" cy="15" r="15" fill="#D8A936"/>
<path d="M11.7311 20.5745H9.59861V13.7075H11.7311V20.5745ZM10.6637 12.7707C9.9818 12.7707 9.42871 12.2059 9.42871 11.524C9.42871 11.1965 9.55882 10.8824 9.79043 10.6508C10.022 10.4192 10.3361 10.2891 10.6637 10.2891C10.9912 10.2891 11.3053 10.4192 11.5369 10.6508C11.7685 10.8824 11.8987 11.1965 11.8987 11.524C11.8987 12.2059 11.3453 12.7707 10.6637 12.7707ZM19.7121 20.5745H17.5843V17.2317C17.5843 16.435 17.5682 15.4133 16.4756 15.4133C15.3669 15.4133 15.197 16.2789 15.197 17.1743V20.5745H13.0668V13.7075H15.112V14.6442H15.1419C15.4266 14.1046 16.122 13.5353 17.1595 13.5353C19.3177 13.5353 19.7144 14.9564 19.7144 16.8024V20.5745H19.7121Z" fill="#020E27"/>
</svg>
