<svg width="829" height="745" viewBox="0 0 829 745" fill="none" xmlns="http://www.w3.org/2000/svg">
<g clip-path="url(#clip0_509_32752)">
<path d="M382.9 692.59C561.658 692.59 706.57 547.678 706.57 368.92C706.57 190.162 561.658 45.25 382.9 45.25C204.142 45.25 59.2305 190.162 59.2305 368.92C59.2305 547.678 204.142 692.59 382.9 692.59Z" fill="url(#paint0_linear_509_32752)"/>
<path d="M382.9 684.65C557.273 684.65 698.63 543.293 698.63 368.92C698.63 194.548 557.273 53.1904 382.9 53.1904C208.527 53.1904 67.1699 194.548 67.1699 368.92C67.1699 543.293 208.527 684.65 382.9 684.65Z" fill="#026666"/>
<path opacity="0.05" d="M280.81 225.65C302.47 225.65 320.03 208.091 320.03 186.43C320.03 164.769 302.47 147.21 280.81 147.21C259.149 147.21 241.59 164.769 241.59 186.43C241.59 208.091 259.149 225.65 280.81 225.65Z" fill="black"/>
<path opacity="0.05" d="M400.771 645.65C422.431 645.65 439.991 628.091 439.991 606.43C439.991 584.769 422.431 567.21 400.771 567.21C379.11 567.21 361.551 584.769 361.551 606.43C361.551 628.091 379.11 645.65 400.771 645.65Z" fill="black"/>
<path opacity="0.05" d="M439.991 404.22C484.279 404.22 520.181 368.318 520.181 324.03C520.181 279.742 484.279 243.84 439.991 243.84C395.703 243.84 359.801 279.742 359.801 324.03C359.801 368.318 395.703 404.22 439.991 404.22Z" fill="black"/>
<path d="M509.73 462.89C470.01 462.89 427.73 460.99 384.51 457.17C288.44 448.69 198.89 431.76 132.37 409.51C65.3703 387.08 29.5703 361.74 31.6503 338.16C32.7003 326.22 43.2203 315.56 62.9003 306.48L63.9003 308.73C45.0803 317.41 35.0503 327.38 34.0803 338.38C33.1103 349.38 41.4303 361.22 58.8303 373.2C75.9303 384.97 100.92 396.39 133.12 407.2C199.47 429.4 288.81 446.28 384.7 454.74C480.59 463.2 571.51 462.23 640.7 452C674.28 447 700.89 440.16 719.79 431.57C739.03 422.83 749.28 412.75 750.26 401.62C751.38 388.95 739.93 375.06 717.16 361.46L718.43 359.33C742.43 373.66 753.96 387.96 752.73 401.84C750.65 425.43 710.99 444.11 641.07 454.44C603 460.05 558.23 462.88 509.73 462.89Z" fill="url(#paint1_linear_509_32752)"/>
<path opacity="0.5" d="M717.831 357.89C740.541 371.46 752.741 385.56 751.531 399.22C747.341 446.69 583.071 470.97 384.621 453.45C186.171 435.93 28.6905 383.25 32.8805 335.78C33.8805 324.05 44.7305 313.78 63.4105 305.12" stroke="#BDBDBD" stroke-width="3" stroke-miterlimit="10"/>
<path d="M423.39 509.39C394.77 497.05 365.56 483.28 336.58 468.45C250.71 424.53 174.06 375.24 120.75 329.64C67.0302 283.7 43.3902 246.79 54.1702 225.7C59.6302 215.02 73.3801 209.09 95.0201 208.06L95.1402 210.53C74.4402 211.53 61.4001 216.99 56.3701 226.82C51.3401 236.65 54.6102 250.75 66.2502 268.38C77.6802 285.7 96.5601 305.68 122.36 327.74C175.52 373.24 252 422.42 337.7 466.25C366.64 481.05 395.79 494.8 424.37 507.12L423.39 509.39Z" fill="url(#paint2_linear_509_32752)"/>
<path d="M428 508.25C399.91 496.14 370.81 482.46 341.26 467.35C163.89 376.64 37.7003 268.7 59.4003 226.28C64.7603 215.8 78.6503 210.28 99.2103 209.28" stroke="#BDBDBD" stroke-width="3" stroke-miterlimit="10"/>
<path d="M655.731 580.19C629.731 580.19 593.061 571.69 543.561 554.63L544.371 552.29C638.831 584.83 685.561 586.15 700.621 556.7C706.411 545.38 701.011 528.21 685.011 507.05L687.011 505.56C703.871 527.84 709.201 545.43 702.851 557.83C695.201 572.72 680.121 580.18 655.731 580.19Z" fill="url(#paint3_linear_509_32752)"/>
<path d="M686.001 503.82C702.001 524.92 708.001 542.57 701.731 554.82C687.341 582.95 645.131 585.82 543.971 551.02" stroke="#BDBDBD" stroke-width="3" stroke-miterlimit="10"/>
<g opacity="0.5">
<path d="M97.5989 661.7H94.3789V679.93H97.5989V661.7Z" fill="#47E6B1"/>
<path d="M105.1 672.43V669.21H86.8696V672.43H105.1Z" fill="#47E6B1"/>
</g>
<g opacity="0.5">
<path d="M751.79 3.21973H748.57V21.4497H751.79V3.21973Z" fill="#47E6B1"/>
<path d="M759.291 13.9495V10.7295L741.061 10.7295V13.9495L759.291 13.9495Z" fill="#47E6B1"/>
</g>
<g opacity="0.5">
<path d="M821.499 500.83H818.279V519.06H821.499V500.83Z" fill="#47E6B1"/>
<path d="M829 511.56V508.34H810.77V511.56H829Z" fill="#47E6B1"/>
</g>
<g opacity="0.5">
<path d="M108.32 47.1904H105.1V65.4204H108.32V47.1904Z" fill="#47E6B1"/>
<path d="M115.83 57.9202V54.7002H97.6001V57.9202H115.83Z" fill="#47E6B1"/>
</g>
<path opacity="0.5" d="M200.22 724.22C199.334 723.835 198.619 723.137 198.214 722.26C197.808 721.382 197.739 720.386 198.02 719.46C198.068 719.318 198.098 719.17 198.11 719.02C198.12 718.604 197.999 718.194 197.765 717.849C197.531 717.505 197.195 717.242 196.803 717.097C196.412 716.953 195.986 716.934 195.584 717.044C195.182 717.154 194.824 717.387 194.56 717.71C194.472 717.831 194.398 717.962 194.34 718.1C193.955 718.987 193.257 719.702 192.38 720.107C191.502 720.513 190.506 720.582 189.58 720.3C189.438 720.253 189.29 720.223 189.141 720.21C188.724 720.201 188.314 720.321 187.969 720.556C187.625 720.79 187.362 721.126 187.217 721.517C187.073 721.909 187.055 722.335 187.165 722.737C187.274 723.139 187.507 723.497 187.83 723.76C187.951 723.849 188.082 723.923 188.22 723.98C189.107 724.366 189.822 725.064 190.227 725.941C190.633 726.819 190.702 727.815 190.421 728.74C190.373 728.883 190.343 729.031 190.33 729.18C190.321 729.597 190.441 730.007 190.676 730.351C190.91 730.696 191.246 730.959 191.638 731.103C192.029 731.248 192.455 731.266 192.857 731.156C193.259 731.046 193.617 730.814 193.881 730.49C193.969 730.37 194.043 730.239 194.101 730.1C194.486 729.213 195.184 728.499 196.061 728.094C196.939 727.688 197.935 727.619 198.86 727.9C199.003 727.948 199.151 727.978 199.3 727.99C199.717 728 200.127 727.879 200.472 727.645C200.816 727.411 201.079 727.074 201.224 726.683C201.368 726.292 201.386 725.866 201.276 725.464C201.167 725.061 200.934 724.704 200.61 724.44C200.49 724.352 200.359 724.278 200.22 724.22Z" fill="#00ADAD"/>
<path opacity="0.5" d="M396.47 737.13C395.584 736.744 394.869 736.046 394.464 735.169C394.058 734.291 393.989 733.295 394.271 732.37C394.318 732.227 394.348 732.079 394.36 731.93C394.37 731.513 394.25 731.103 394.015 730.759C393.781 730.414 393.445 730.151 393.053 730.006C392.662 729.862 392.236 729.844 391.834 729.954C391.432 730.063 391.074 730.296 390.811 730.62C390.722 730.74 390.648 730.871 390.591 731.01C390.205 731.896 389.507 732.611 388.63 733.016C387.752 733.422 386.756 733.491 385.831 733.21C385.688 733.162 385.54 733.132 385.391 733.12C384.974 733.11 384.564 733.231 384.22 733.465C383.875 733.699 383.612 734.035 383.467 734.427C383.323 734.818 383.305 735.244 383.415 735.646C383.524 736.048 383.757 736.406 384.081 736.67C384.201 736.758 384.332 736.832 384.47 736.89C385.357 737.275 386.072 737.973 386.477 738.85C386.883 739.728 386.952 740.724 386.67 741.65C386.623 741.792 386.593 741.94 386.581 742.09C386.571 742.506 386.692 742.916 386.926 743.261C387.16 743.605 387.496 743.868 387.888 744.013C388.279 744.157 388.705 744.175 389.107 744.066C389.509 743.956 389.867 743.723 390.131 743.4C390.219 743.279 390.293 743.148 390.35 743.01C390.736 742.123 391.434 741.408 392.311 741.003C393.189 740.597 394.185 740.528 395.11 740.81C395.253 740.857 395.401 740.887 395.551 740.9C395.967 740.909 396.377 740.789 396.722 740.554C397.066 740.32 397.329 739.984 397.474 739.592C397.618 739.201 397.636 738.775 397.527 738.373C397.417 737.971 397.184 737.613 396.86 737.35C396.74 737.261 396.609 737.187 396.47 737.13Z" fill="#4D8AF0"/>
<path opacity="0.5" d="M784.701 219.13C783.814 218.744 783.1 218.046 782.694 217.169C782.288 216.291 782.22 215.295 782.501 214.37C782.548 214.227 782.579 214.079 782.591 213.93C782.601 213.513 782.48 213.103 782.246 212.759C782.011 212.414 781.675 212.151 781.284 212.006C780.893 211.862 780.466 211.844 780.064 211.954C779.662 212.064 779.304 212.296 779.041 212.62C778.952 212.74 778.879 212.871 778.821 213.01C778.436 213.896 777.738 214.611 776.86 215.016C775.982 215.422 774.986 215.491 774.061 215.21C773.918 215.162 773.771 215.132 773.621 215.12C773.204 215.11 772.795 215.231 772.45 215.465C772.105 215.699 771.842 216.035 771.698 216.427C771.554 216.818 771.535 217.244 771.645 217.646C771.755 218.048 771.988 218.406 772.311 218.67C772.432 218.758 772.563 218.832 772.701 218.89C773.588 219.275 774.302 219.973 774.708 220.85C775.113 221.728 775.182 222.724 774.901 223.65C774.854 223.792 774.823 223.94 774.811 224.09C774.801 224.506 774.922 224.916 775.156 225.261C775.391 225.605 775.727 225.868 776.118 226.013C776.509 226.157 776.936 226.175 777.338 226.066C777.74 225.956 778.098 225.723 778.361 225.4C778.449 225.279 778.523 225.148 778.581 225.01C778.966 224.123 779.664 223.408 780.542 223.003C781.42 222.597 782.416 222.528 783.341 222.81C783.484 222.857 783.631 222.887 783.781 222.9C784.198 222.909 784.607 222.789 784.952 222.554C785.297 222.32 785.56 221.984 785.704 221.593C785.848 221.201 785.867 220.775 785.757 220.373C785.647 219.971 785.414 219.613 785.091 219.35C784.97 219.261 784.839 219.187 784.701 219.13Z" fill="#00ADAD"/>
<path opacity="0.5" d="M20.2596 502.93C19.3726 502.545 18.6584 501.847 18.2527 500.97C17.847 500.092 17.7783 499.095 18.0596 498.17C18.1069 498.028 18.1371 497.88 18.1496 497.73C18.1593 497.314 18.0386 496.904 17.8042 496.559C17.5699 496.215 17.2336 495.952 16.8425 495.807C16.4514 495.663 16.0249 495.644 15.6228 495.754C15.2206 495.864 14.8629 496.097 14.5996 496.42C14.511 496.541 14.4372 496.672 14.3796 496.81C13.9944 497.697 13.2964 498.412 12.4187 498.817C11.541 499.223 10.5447 499.292 9.61955 499.01C9.47699 498.963 9.32927 498.933 9.17955 498.92C8.76276 498.911 8.35336 499.031 8.00856 499.266C7.66376 499.5 7.40082 499.836 7.25649 500.227C7.11216 500.619 7.09366 501.045 7.20358 501.447C7.31351 501.849 7.54634 502.207 7.86955 502.47C7.99038 502.559 8.12129 502.633 8.25955 502.69C9.14646 503.076 9.86076 503.773 10.2664 504.651C10.6721 505.529 10.7409 506.525 10.4596 507.45C10.4122 507.593 10.382 507.741 10.3696 507.89C10.3598 508.307 10.4806 508.717 10.7149 509.061C10.9493 509.406 11.2855 509.669 11.6766 509.813C12.0677 509.958 12.4942 509.976 12.8963 509.866C13.2985 509.756 13.6562 509.524 13.9196 509.2C14.0081 509.08 14.0819 508.949 14.1396 508.81C14.5248 507.923 15.2227 507.209 16.1004 506.803C16.9782 506.398 17.9744 506.329 18.8996 506.61C19.0421 506.658 19.1898 506.688 19.3396 506.7C19.7563 506.71 20.1658 506.589 20.5106 506.355C20.8554 506.121 21.1183 505.784 21.2626 505.393C21.407 505.002 21.4255 504.576 21.3155 504.174C21.2056 503.771 20.9728 503.414 20.6496 503.15C20.5287 503.062 20.3978 502.988 20.2596 502.93Z" fill="#00ADAD"/>
<path opacity="0.5" d="M6.43 244.51C9.98119 244.51 12.86 241.632 12.86 238.08C12.86 234.529 9.98119 231.65 6.43 231.65C2.87881 231.65 0 234.529 0 238.08C0 241.632 2.87881 244.51 6.43 244.51Z" fill="#00ADAD"/>
<path opacity="0.5" d="M530.86 28.9498C534.411 28.9498 537.29 26.071 537.29 22.5198C537.29 18.9687 534.411 16.0898 530.86 16.0898C527.308 16.0898 524.43 18.9687 524.43 22.5198C524.43 26.071 527.308 28.9498 530.86 28.9498Z" fill="#00ADAD"/>
<path opacity="0.5" d="M176.95 12.86C180.501 12.86 183.38 9.98119 183.38 6.43C183.38 2.87881 180.501 0 176.95 0C173.398 0 170.52 2.87881 170.52 6.43C170.52 9.98119 173.398 12.86 176.95 12.86Z" fill="#47E6B1"/>
<path opacity="0.5" d="M653.119 698.16C656.671 698.16 659.549 695.281 659.549 691.73C659.549 688.179 656.671 685.3 653.119 685.3C649.568 685.3 646.689 688.179 646.689 691.73C646.689 695.281 649.568 698.16 653.119 698.16Z" fill="#00ADAD"/>
<path d="M501.589 489.28C499.796 488.35 497.707 488.17 495.781 488.779C493.856 489.389 492.251 490.738 491.319 492.53L490.539 494.03L488.759 493.1L472.849 484.84L469.389 483.04C468.905 482.789 468.363 482.675 467.819 482.71C452.589 477.71 440.369 487.34 432.489 502.51C429.684 507.7 427.825 513.348 426.999 519.19L426.819 519.1C425.939 525.35 426.759 531.21 429.819 536.17L430.079 535.66C431.61 538.178 433.581 540.4 435.899 542.22C435.977 542.544 436.123 542.847 436.329 543.11C436.534 543.372 436.793 543.587 437.089 543.74L458.869 555.05L457.209 558.24C456.279 560.033 456.099 562.122 456.708 564.048C457.318 565.973 458.667 567.578 460.459 568.51L465.629 558.51L492.489 572.46L494.249 569.08L496.009 565.7L498.639 560.63H498.729L492.629 572.37L505.479 579.13C521.119 587.25 533.069 576.82 541.749 560.66V560.57L542.279 559.57V559.48L542.729 558.59C551.029 542.14 552.729 526.38 537.009 518.23L524.199 511.63L517.129 525.25H517.039L520.649 518.3L522.309 515.11L524.159 511.54L497.299 497.54L501.589 489.28ZM460.589 547.36L460.669 547.43H460.579L460.589 547.36Z" fill="url(#paint4_linear_509_32752)"/>
<path d="M494.794 502.933L468.371 553.8L493.804 567.011L520.227 516.145L494.794 502.933Z" fill="#4F617D"/>
<path d="M539.001 558.01V557.92C530.791 573.72 519.381 584.17 504.331 576.36L492.221 570.07L522.001 512.84L534.101 519.13C549.151 526.95 547.211 542.21 539.001 558.01Z" fill="#FF656A"/>
<path d="M529.65 571.43C533.414 567.43 536.565 562.894 539 557.97C541.253 553.765 542.989 549.303 544.17 544.68L539 541.99L525 568.99L529.65 571.43Z" fill="#4A5C81"/>
<path d="M497.931 559.061L515.273 525.677L516.205 526.161C516.708 526.422 517.155 526.781 517.52 527.215C517.885 527.649 518.161 528.151 518.332 528.692C518.503 529.233 518.566 529.802 518.517 530.367C518.468 530.932 518.308 531.482 518.047 531.986L504.679 557.721C504.151 558.738 503.24 559.503 502.148 559.848C501.055 560.194 499.87 560.091 498.854 559.563L497.922 559.079L497.931 559.061Z" fill="#4A5C81"/>
<path d="M440.761 537.011L441.406 535.768L495.45 563.842L492.149 570.195L443.226 544.782C442.553 544.434 441.956 543.957 441.468 543.378C440.98 542.799 440.611 542.129 440.382 541.407C440.153 540.686 440.068 539.926 440.133 539.171C440.198 538.417 440.412 537.683 440.761 537.011Z" fill="#FF6469"/>
<path d="M464.623 491.068L465.268 489.826C465.973 488.47 467.187 487.45 468.643 486.989C470.1 486.529 471.679 486.665 473.035 487.37L521.967 512.788L518.666 519.142L464.623 491.068Z" fill="#FF6469"/>
<path d="M488.65 495.41L458.93 552.64L443.93 544.87C427.4 536.28 427.49 520.06 435.69 504.26C443.9 488.46 457.12 479.06 473.69 487.64L488.65 495.41Z" fill="#FF656A"/>
<path d="M433.179 535.93L439.179 524.43L430.389 519.87C429.529 525.75 430.309 531.26 433.179 535.93Z" fill="#FFF6D5"/>
<path d="M459.89 484.5L453.89 496L445.1 491.44C449.47 487.37 454.42 484.83 459.89 484.5Z" fill="#FFF6D5"/>
<path d="M458.325 558.016L460.63 553.579L466.984 556.88L462.024 566.428L460.799 565.792C460.125 565.445 459.526 564.968 459.037 564.389C458.548 563.81 458.178 563.14 457.948 562.418C457.718 561.696 457.633 560.935 457.698 560.18C457.762 559.424 457.976 558.689 458.325 558.016Z" fill="#FF6469"/>
<path d="M500.689 491.754L495.733 501.294L489.379 497.993L491.684 493.556C492.388 492.2 493.602 491.18 495.059 490.719C496.515 490.259 498.095 490.396 499.451 491.1L500.693 491.745L500.689 491.754Z" fill="#FF6469"/>
<path d="M492.441 503.44L467.581 551.31L446.001 532.01C444.322 530.508 443.191 528.49 442.785 526.274C442.379 524.058 442.723 521.77 443.761 519.77L453.001 501.99C454.043 499.983 455.725 498.381 457.782 497.439C459.838 496.497 462.15 496.269 464.351 496.79L492.441 503.44Z" fill="#53678B"/>
<path d="M468.671 549.63C458.131 544.16 454.581 530.12 460.741 518.26C466.901 506.4 480.431 501.26 490.961 506.71" fill="#658BC8"/>
<path d="M494.159 504.45L469.389 552.14L464.619 549.66L467.979 547.08L488.329 507.91L489.389 501.97L494.159 504.45Z" fill="#FF656A"/>
<path opacity="0.05" d="M494.159 504.45L469.389 552.14L464.619 549.66L467.979 547.08L488.329 507.91L489.389 501.97L494.159 504.45Z" fill="black"/>
<path d="M481.711 528.331L478.41 534.685L484.764 537.985L488.065 531.631L481.711 528.331Z" fill="#53678B"/>
<path d="M488.019 535.627C489.841 532.118 490.608 528.904 489.731 528.448C488.853 527.993 486.664 530.468 484.842 533.977C483.019 537.486 482.252 540.7 483.129 541.156C484.007 541.612 486.196 539.137 488.019 535.627Z" fill="#53678B"/>
<path opacity="0.05" d="M503.859 568.03C505.246 568.974 506.811 569.624 508.459 569.939C510.107 570.255 511.802 570.229 513.439 569.863C515.076 569.498 516.621 568.8 517.978 567.814C519.335 566.828 520.476 565.574 521.329 564.13" fill="black"/>
<path opacity="0.05" d="M526.16 525.13C527.727 525.723 529.155 526.631 530.358 527.797C531.56 528.963 532.511 530.363 533.152 531.911C533.793 533.459 534.11 535.121 534.084 536.796C534.058 538.471 533.689 540.123 533 541.65" fill="black"/>
<path opacity="0.05" d="M448.891 525.34C448.891 525.34 447.481 512.5 460.451 503.09Z" fill="black"/>
<path opacity="0.05" d="M454.891 528.46C454.891 528.46 453.481 515.62 466.451 506.21Z" fill="black"/>
<path d="M471.989 535.381C473.356 532.749 472.331 529.507 469.699 528.14C467.067 526.773 463.825 527.798 462.458 530.43C461.091 533.062 462.116 536.304 464.748 537.671C467.38 539.038 470.622 538.013 471.989 535.381Z" fill="#4A77BE"/>
<path d="M477.895 516.249C478.806 514.494 478.123 512.333 476.368 511.421C474.614 510.51 472.452 511.193 471.541 512.948C470.629 514.703 471.313 516.864 473.068 517.775C474.822 518.687 476.983 518.003 477.895 516.249Z" fill="#4A77BE"/>
<path d="M486.328 527.925L486.118 526.896C486.003 526.335 486.116 525.751 486.432 525.273C486.748 524.795 487.241 524.462 487.803 524.347L499.318 521.997C499.892 521.88 500.489 521.996 500.978 522.319C501.468 522.642 501.808 523.147 501.925 523.721L502.559 526.828L488.839 529.628C488.281 529.731 487.704 529.61 487.234 529.292C486.764 528.973 486.439 528.482 486.328 527.925Z" fill="#CDEFFF"/>
<path opacity="0.05" d="M493.088 529.787L492.022 524.524L498.304 523.252C499.427 523.024 500.594 523.252 501.549 523.885C502.504 524.518 503.168 525.505 503.396 526.628L503.604 527.657L493.088 529.787Z" fill="black"/>
<path d="M483.434 552.251L487.763 543.918L497.631 549.044L493.302 557.377C492.758 558.424 491.82 559.213 490.695 559.569C489.57 559.924 488.349 559.819 487.302 559.275L485.376 558.274C484.851 558.009 484.383 557.642 484.001 557.194C483.618 556.747 483.328 556.228 483.148 555.668C482.967 555.108 482.9 554.517 482.949 553.931C482.998 553.344 483.163 552.773 483.434 552.251Z" fill="#CDEFFF"/>
<path d="M493.53 556.4L491.74 560.23C489.8 563.45 485.1 564.33 481.05 562.23L476.35 559.79L478.9 554.87L493.53 556.4Z" fill="#CDEFFF"/>
<path d="M467.563 552.773L468.061 551.815C468.334 551.29 468.804 550.895 469.368 550.716C469.931 550.538 470.543 550.591 471.068 550.864L478.922 554.943L476.368 559.86L468.514 555.78C467.989 555.507 467.594 555.037 467.416 554.473C467.238 553.91 467.29 553.298 467.563 552.773Z" fill="#CDEFFF"/>
<path opacity="0.05" d="M491.921 549.13C493.55 549.978 495.414 550.259 497.221 549.93L497.481 549.42L487.881 544.42C488.566 546.454 490.015 548.143 491.921 549.13Z" fill="black"/>
<path d="M507.108 530.452L502.784 538.776L492.952 533.668L497.28 525.336C497.55 524.817 497.918 524.357 498.366 523.98C498.813 523.604 499.33 523.32 499.887 523.144C500.445 522.968 501.031 522.903 501.613 522.953C502.195 523.004 502.762 523.168 503.281 523.438L505.206 524.438C505.725 524.708 506.185 525.076 506.561 525.524C506.937 525.971 507.222 526.488 507.398 527.045C507.574 527.603 507.639 528.189 507.588 528.771C507.538 529.353 507.373 529.92 507.104 530.439L507.108 530.452Z" fill="#CDEFFF"/>
<path opacity="0.05" d="M499.72 534.13C501.354 534.975 502.659 536.34 503.43 538.01L503.17 538.52L493.57 533.52C495.622 532.922 497.826 533.141 499.72 534.13Z" fill="black"/>
<path d="M503.218 545.208C505.334 541.135 503.747 536.118 499.674 534.003C495.602 531.887 490.585 533.474 488.469 537.546C486.354 541.619 487.94 546.636 492.013 548.752C496.086 550.867 501.103 549.281 503.218 545.208Z" fill="#CDEFFF"/>
<path d="M502.804 545.332C504.92 541.259 503.333 536.242 499.26 534.127C495.188 532.011 490.171 533.598 488.055 537.671C485.94 541.743 487.526 546.76 491.599 548.876C495.672 550.991 500.688 549.405 502.804 545.332Z" fill="#CDEFFF"/>
<path d="M487.999 537.59C487.326 538.884 487.006 540.332 487.071 541.789C487.136 543.247 487.583 544.661 488.369 545.89C489.824 545.823 491.236 545.375 492.463 544.59C493.69 543.806 494.689 542.713 495.361 541.42C496.032 540.128 496.352 538.682 496.289 537.227C496.225 535.772 495.78 534.359 494.999 533.13C493.543 533.194 492.13 533.639 490.901 534.422C489.673 535.205 488.672 536.298 487.999 537.59Z" fill="#658BC8"/>
</g>
<defs>
<linearGradient id="paint0_linear_509_32752" x1="382.9" y1="692.59" x2="382.9" y2="45.25" gradientUnits="userSpaceOnUse">
<stop stop-color="#808080" stop-opacity="0.25"/>
<stop offset="0.54" stop-color="#808080" stop-opacity="0.12"/>
<stop offset="1" stop-color="#808080" stop-opacity="0.1"/>
</linearGradient>
<linearGradient id="paint1_linear_509_32752" x1="392.21" y1="462.89" x2="392.21" y2="306.47" gradientUnits="userSpaceOnUse">
<stop stop-color="#808080" stop-opacity="0.25"/>
<stop offset="0.54" stop-color="#808080" stop-opacity="0.12"/>
<stop offset="1" stop-color="#808080" stop-opacity="0.1"/>
</linearGradient>
<linearGradient id="paint2_linear_509_32752" x1="237.99" y1="509.39" x2="237.99" y2="208.08" gradientUnits="userSpaceOnUse">
<stop stop-color="#808080" stop-opacity="0.25"/>
<stop offset="0.54" stop-color="#808080" stop-opacity="0.12"/>
<stop offset="1" stop-color="#808080" stop-opacity="0.1"/>
</linearGradient>
<linearGradient id="paint3_linear_509_32752" x1="624.481" y1="580.19" x2="624.481" y2="505.55" gradientUnits="userSpaceOnUse">
<stop stop-color="#808080" stop-opacity="0.25"/>
<stop offset="0.54" stop-color="#808080" stop-opacity="0.12"/>
<stop offset="1" stop-color="#808080" stop-opacity="0.1"/>
</linearGradient>
<linearGradient id="paint4_linear_509_32752" x1="541.894" y1="560.587" x2="432.032" y2="503.518" gradientUnits="userSpaceOnUse">
<stop stop-color="#808080" stop-opacity="0.25"/>
<stop offset="0.54" stop-color="#808080" stop-opacity="0.12"/>
<stop offset="1" stop-color="#808080" stop-opacity="0.1"/>
</linearGradient>
<clipPath id="clip0_509_32752">
<rect width="829" height="744.16" fill="white"/>
</clipPath>
</defs>
</svg>
